<svg width="182" height="41" viewBox="0 0 182 41" fill="none" xmlns="http://www.w3.org/2000/svg">
<g clip-path="url(#clip0_305_2138)">
<mask id="mask0_305_2138" style="mask-type:luminance" maskUnits="userSpaceOnUse" x="0" y="0" width="182" height="41">
<path d="M182 0.5H0V40.5H182V0.5Z" fill="white"/>
</mask>
<g mask="url(#mask0_305_2138)">
<path d="M30.2725 0.5H36.8786V30.6693H30.2725V0.5Z" fill="white"/>
<path d="M41.4141 0.5H48.0202V30.6693H41.4141V0.5Z" fill="white"/>
<path d="M102.409 9.47464V30.2466H95.803V27.3152C95.5315 27.8194 95.1821 28.2777 94.7678 28.6735C94.3241 29.1007 93.8216 29.4627 93.2755 29.7485C92.6919 30.0573 92.0771 30.3034 91.4415 30.4828C90.7956 30.6676 90.1269 30.7611 89.455 30.7608C88.0355 30.7774 86.6289 30.4913 85.3292 29.9216C84.1125 29.3856 83.0181 28.6077 82.1129 27.6352C81.1996 26.6359 80.4955 25.4646 80.0422 24.19C79.5434 22.8005 79.2942 21.3341 79.3063 19.8583C79.2916 18.3822 79.5408 16.9154 80.0422 15.5266C80.495 14.2518 81.1991 13.0803 82.1129 12.0814C83.0181 11.1089 84.1125 10.3309 85.3292 9.79493C86.6288 9.22477 88.0355 8.93865 89.455 8.95581C90.1267 8.95803 90.795 9.05154 91.4415 9.23376C92.0802 9.41323 92.6957 9.66663 93.2755 9.9888C93.8224 10.2924 94.3246 10.6701 94.7678 11.1111C95.1736 11.5066 95.522 11.9567 95.803 12.4484V9.47464H102.409H102.409ZM90.8366 25.1599C91.5367 25.1709 92.2302 25.0238 92.8653 24.7298C93.4545 24.455 93.9832 24.0664 94.421 23.5865C94.865 23.096 95.2096 22.5243 95.4355 21.903C95.683 21.25 95.8076 20.5572 95.8033 19.8592C95.8092 19.1674 95.6845 18.4806 95.4355 17.8349C95.1977 17.2194 94.8544 16.6497 94.421 16.1514C93.9869 15.6621 93.4576 15.2661 92.8653 14.9873C92.2267 14.7038 91.5356 14.5573 90.8366 14.5573C90.1377 14.5573 89.4466 14.7038 88.808 14.9873C88.2156 15.266 87.6863 15.6621 87.2522 16.1514C86.8149 16.6468 86.4711 17.2172 86.2378 17.8349C85.9893 18.4808 85.8645 19.1674 85.87 19.8592C85.8656 20.5572 85.9903 21.25 86.2378 21.903C86.4683 22.5221 86.8123 23.093 87.2522 23.5865C87.6915 24.0648 88.2199 24.4532 88.808 24.7298C89.4431 25.0238 90.1366 25.1709 90.8366 25.1599Z" fill="white"/>
<path d="M117.136 40.623C115.644 40.6482 114.156 40.4736 112.711 40.1039C111.522 39.7902 110.413 39.2334 109.452 38.4688C108.602 37.7611 107.906 36.8887 107.404 35.9045C106.847 34.7734 106.573 33.5247 106.605 32.265H113.211C113.27 33.445 113.679 34.3435 114.44 34.9605C115.23 35.5884 116.216 35.9173 117.225 35.8887C118.492 35.8887 119.485 35.5793 120.205 34.9605C120.925 34.3417 121.284 33.2283 121.283 31.6201V27.35C120.717 28.4584 119.819 29.3625 118.713 29.9354C117.447 30.5688 116.044 30.8804 114.629 30.8426C113.392 30.8703 112.164 30.6362 111.024 30.1556C110.093 29.7522 109.273 29.133 108.63 28.3495C107.987 27.566 107.541 26.6408 107.329 25.6507C107.109 24.4205 107.009 23.1718 107.03 21.9223V9.89746H113.594V20.543C113.594 22.0375 113.86 23.2506 114.393 24.1824C114.923 25.1167 115.885 25.5839 117.262 25.5839C118.64 25.5839 119.659 25.1118 120.305 24.1626C120.952 23.2134 121.278 21.9337 121.278 20.329V9.89746H127.885V31.1888C127.918 32.6496 127.654 34.102 127.107 35.4575C126.643 36.5883 125.917 37.593 124.988 38.3888C124.035 39.181 122.924 39.7619 121.729 40.0931C120.229 40.4822 118.681 40.6639 117.131 40.6332L117.136 40.623Z" fill="white"/>
<path d="M132.892 0.500153H145.575C147.135 0.478097 148.683 0.779338 150.121 1.38482C151.427 1.94112 152.61 2.74928 153.603 3.76293C154.574 4.76137 155.332 5.94618 155.831 7.24555C156.87 9.94467 156.87 12.9324 155.831 15.6315C155.327 16.9283 154.569 18.1121 153.603 19.1142C152.609 20.1267 151.426 20.9347 150.121 21.4923C148.683 22.0975 147.135 22.3984 145.575 22.3761H139.902V30.7621H132.892V0.500153ZM144.706 16.6724C145.393 16.6804 146.074 16.5329 146.696 16.2409C147.282 15.9675 147.805 15.5772 148.234 15.094C148.659 14.6049 148.989 14.0411 149.208 13.4315C149.672 12.1461 149.672 10.7397 149.208 9.45431C148.991 8.84415 148.66 8.28021 148.234 7.79183C147.805 7.30906 147.281 6.9188 146.696 6.64497C146.074 6.35296 145.393 6.20542 144.706 6.21344H139.902V16.6777H144.706V16.6724Z" fill="#FF008D"/>
<path d="M181.746 30.761L170.737 0.5H164.256L153.38 30.761H160.91L162.085 26.9161C163.844 27.4706 165.679 27.744 167.524 27.726C169.357 27.7465 171.182 27.4749 172.93 26.9213L174.095 30.7558H181.752L181.746 30.761ZM167.519 22.0241C166.241 22.0447 164.976 21.7768 163.817 21.2404L167.519 9.14759L171.199 21.2509C170.046 21.7807 168.788 22.045 167.519 22.0241Z" fill="#FF008D"/>
<path d="M20.5125 30.6696L19.3511 27.0144H8.61896L7.45761 30.6696H0L10.774 0.567383H17.1964L28.1017 30.6696H20.5177H20.5125ZM14.007 9.16768L10.3008 21.5545H17.6271L14.007 9.16768Z" fill="white"/>
<path d="M62.9515 0.499799C65.2473 0.458201 67.5268 0.892673 69.6457 1.77571C71.5053 2.56269 73.1859 3.71762 74.5857 5.17075C75.9178 6.568 76.9625 8.21223 77.6607 10.0105C78.3639 11.8009 78.7241 13.7072 78.7226 15.6303C78.7236 17.5514 78.3708 19.4563 77.6818 21.2502C76.9985 23.051 75.96 24.6967 74.6279 26.0899C73.2231 27.5468 71.5349 28.7021 69.6667 29.4849C67.5401 30.3664 65.254 30.8008 62.9515 30.7608H51.8193V0.499799H62.9515ZM58.8357 6.55206V24.7088H62.6027C63.9056 24.7319 65.1981 24.4728 66.391 23.9494C67.4601 23.4741 68.4189 22.783 69.2071 21.9197C69.9696 21.074 70.5648 20.0919 70.9612 19.0253C71.7714 16.8413 71.7714 14.44 70.9612 12.256C70.5687 11.1812 69.9733 10.1916 69.2071 9.34067C68.4203 8.47587 67.4611 7.78461 66.391 7.31119C65.1979 6.78845 63.9056 6.52948 62.6027 6.55206H58.8357Z" fill="white"/>
</g>
</g>
<defs>
<clipPath id="clip0_305_2138">
<rect width="182" height="40" fill="white" transform="translate(0 0.5)"/>
</clipPath>
</defs>
</svg>
