<svg fill="#F25081" xmlns="http://www.w3.org/2000/svg"  viewBox="0 0 50 50" width="50px" height="50px"><path d="M 14 3.9902344 C 8.49 3.9902344 4 8.4802344 4 13.990234 L 4 35.990234 C 4 41.500234 8.49 45.990234 14 45.990234 L 36 45.990234 C 41.51 45.990234 46 41.500234 46 35.990234 L 46 13.990234 C 46 8.4802344 41.51 3.9902344 36 3.9902344 L 14 3.9902344 z M 16.400391 18 L 24 18 C 26 18 27.65 18.650781 29 19.800781 L 29 18 L 34.5 18 C 37.53 18 40 20.47 40 23.5 C 40 26.53 37.53 29 34.5 29 L 34 29 L 34 32 L 29 32 L 29 30.640625 C 27.85 31.460625 26.2 32 24 32 L 20 32 L 20 29 L 16.570312 29 L 14.820312 32 L 8.8203125 32 L 16.400391 18 z M 17.599609 20 L 12.179688 30 L 13.679688 30 L 15.429688 27 L 22 27 L 22 30 L 24 30 C 27.28 30 29 28 29 27 L 31 27 L 31 30 L 32 30 L 32 27 L 34.5 27 C 36.43 27 38 25.43 38 23.5 C 38 21.57 36.43 20 34.5 20 L 31 20 L 31 24 L 29 24 C 29 22 27 20 24 20 L 17.599609 20 z M 20 21 L 22 21 L 22 26 L 16 26 L 17 24 L 20 24 L 20 21 z M 23 21 L 24 21 C 26.07 21 27.75 22.79 27.75 25 C 27.75 27.21 26.07 29 24 29 L 23 29 L 23 27 L 24 27 C 24.96 27 25.75 26.1 25.75 25 C 25.75 23.9 24.96 23 24 23 L 23 23 L 23 21 z M 32 21 L 34 21 C 35.63 21 37 22.14 37 23.5 C 37 24.88 35.720391 26 34.150391 26 L 32 26 L 32 24 L 34.150391 24 C 34.630391 24 35 23.73 35 23.5 C 35 23.36 34.57 23 34 23 L 32 23 L 32 21 z"/></svg>